<svg xmlns="http://www.w3.org/2000/svg" xmlns:xlink="http://www.w3.org/1999/xlink" contentStyleType="text/css" data-diagram-type="CLASS" height="277px" preserveAspectRatio="none" style="width:451px;height:277px;background:#FFFFFF;" version="1.1" viewBox="0 0 451 277" width="451px" zoomAndPan="magnify"><defs/><g><!--class TaskGroup--><g class="entity" data-entity="TaskGroup" data-source-line="5" data-uid="ent0002" id="entity_TaskGroup"><rect fill="#F1F1F1" height="133.1055" rx="2.5" ry="2.5" style="stroke:#181818;stroke-width:0.5;" width="162.9648" x="7" y="72"/><ellipse cx="49.7726" cy="88" fill="#ADD1B2" rx="11" ry="11" style="stroke:#181818;stroke-width:1;"/><path d="M52.5382,83.875 Q52.6944,83.6563 52.8819,83.5469 Q53.0694,83.4375 53.2882,83.4375 Q53.6632,83.4375 53.8976,83.7031 Q54.1319,83.9531 54.1319,84.5625 L54.1319,86.0156 Q54.1319,86.625 53.8976,86.8906 Q53.6632,87.1563 53.2882,87.1563 Q52.9444,87.1563 52.7413,86.9531 Q52.5382,86.7656 52.4288,86.25 Q52.3819,85.8906 52.1944,85.7031 Q51.8663,85.3281 51.2569,85.1094 Q50.6476,84.8906 50.0226,84.8906 Q49.2569,84.8906 48.6163,85.2188 Q47.9913,85.5469 47.4913,86.2969 Q47.0069,87.0469 47.0069,88.0781 L47.0069,89.1719 Q47.0069,90.4063 47.8976,91.2344 Q48.7882,92.0469 50.3819,92.0469 Q51.3194,92.0469 51.9757,91.7969 Q52.3663,91.6406 52.7882,91.2031 Q53.0538,90.9375 53.1944,90.8594 Q53.3507,90.7813 53.5538,90.7813 Q53.8819,90.7813 54.1319,91.0469 Q54.3976,91.2969 54.3976,91.6406 Q54.3976,91.9844 54.0538,92.3906 Q53.5538,92.9688 52.7569,93.2969 Q51.6788,93.75 50.3819,93.75 Q48.8663,93.75 47.6632,93.125 Q46.6788,92.625 45.9913,91.5625 Q45.3038,90.4844 45.3038,89.2031 L45.3038,88.0469 Q45.3038,86.7188 45.9132,85.5781 Q46.5382,84.4219 47.6319,83.8125 Q48.7257,83.1875 49.9601,83.1875 Q50.6944,83.1875 51.3351,83.3594 Q51.9913,83.5156 52.5382,83.875 Z " fill="#000000"/><text fill="#000000" font-family="sans-serif" font-size="14" lengthAdjust="spacing" textLength="69.248" x="69.9442" y="93.7969">TaskGroup</text><line style="stroke:#181818;stroke-width:0.5;" x1="8" x2="168.9648" y1="104" y2="104"/><rect fill="none" height="6" style="stroke:#C82930;stroke-width:1;" width="6" x="15" y="115.8105"/><text fill="#000000" font-family="sans-serif" font-size="14" lengthAdjust="spacing" textLength="45.9307" x="27" y="123.1074">Long id</text><rect fill="none" height="6" style="stroke:#C82930;stroke-width:1;" width="6" x="15" y="134.4316"/><text fill="#000000" font-family="sans-serif" font-size="14" lengthAdjust="spacing" textLength="82.4824" x="27" y="141.7285">Short version</text><rect fill="none" height="6" style="stroke:#C82930;stroke-width:1;" width="6" x="15" y="153.0527"/><text fill="#000000" font-family="sans-serif" font-size="14" lengthAdjust="spacing" textLength="75.4824" x="27" y="160.3496">String name</text><rect fill="none" height="6" style="stroke:#C82930;stroke-width:1;" width="6" x="15" y="171.6738"/><text fill="#000000" font-family="sans-serif" font-size="14" lengthAdjust="spacing" textLength="108.165" x="27" y="178.9707">String description</text><rect fill="none" height="6" style="stroke:#C82930;stroke-width:1;" width="6" x="15" y="190.2949"/><text fill="#000000" font-family="sans-serif" font-size="14" lengthAdjust="spacing" textLength="136.9648" x="27" y="197.5918">Set&lt;TaskBean&gt; tasks</text></g><!--class Task--><g class="entity" data-entity="Task" data-source-line="14" data-uid="ent0003" id="entity_Task"><rect fill="#F1F1F1" height="263.4531" rx="2.5" ry="2.5" style="stroke:#181818;stroke-width:0.5;" width="214.3301" x="230" y="7"/><ellipse cx="317.7461" cy="23" fill="#ADD1B2" rx="11" ry="11" style="stroke:#181818;stroke-width:1;"/><path d="M320.5117,18.875 Q320.668,18.6563 320.8555,18.5469 Q321.043,18.4375 321.2617,18.4375 Q321.6367,18.4375 321.8711,18.7031 Q322.1055,18.9531 322.1055,19.5625 L322.1055,21.0156 Q322.1055,21.625 321.8711,21.8906 Q321.6367,22.1563 321.2617,22.1563 Q320.918,22.1563 320.7148,21.9531 Q320.5117,21.7656 320.4023,21.25 Q320.3555,20.8906 320.168,20.7031 Q319.8398,20.3281 319.2305,20.1094 Q318.6211,19.8906 317.9961,19.8906 Q317.2305,19.8906 316.5898,20.2188 Q315.9648,20.5469 315.4648,21.2969 Q314.9805,22.0469 314.9805,23.0781 L314.9805,24.1719 Q314.9805,25.4063 315.8711,26.2344 Q316.7617,27.0469 318.3555,27.0469 Q319.293,27.0469 319.9492,26.7969 Q320.3398,26.6406 320.7617,26.2031 Q321.0273,25.9375 321.168,25.8594 Q321.3242,25.7813 321.5273,25.7813 Q321.8555,25.7813 322.1055,26.0469 Q322.3711,26.2969 322.3711,26.6406 Q322.3711,26.9844 322.0273,27.3906 Q321.5273,27.9688 320.7305,28.2969 Q319.6523,28.75 318.3555,28.75 Q316.8398,28.75 315.6367,28.125 Q314.6523,27.625 313.9648,26.5625 Q313.2773,25.4844 313.2773,24.2031 L313.2773,23.0469 Q313.2773,21.7188 313.8867,20.5781 Q314.5117,19.4219 315.6055,18.8125 Q316.6992,18.1875 317.9336,18.1875 Q318.668,18.1875 319.3086,18.3594 Q319.9648,18.5156 320.5117,18.875 Z " fill="#000000"/><text fill="#000000" font-family="sans-serif" font-size="14" lengthAdjust="spacing" textLength="30.3379" x="338.2461" y="28.7969">Task</text><line style="stroke:#181818;stroke-width:0.5;" x1="231" x2="443.3301" y1="39" y2="39"/><rect fill="none" height="6" style="stroke:#C82930;stroke-width:1;" width="6" x="238" y="50.8105"/><text fill="#000000" font-family="sans-serif" font-size="14" lengthAdjust="spacing" textLength="45.9307" x="250" y="58.1074">Long id</text><rect fill="none" height="6" style="stroke:#C82930;stroke-width:1;" width="6" x="238" y="69.4316"/><text fill="#000000" font-family="sans-serif" font-size="14" lengthAdjust="spacing" textLength="82.4824" x="250" y="76.7285">Short version</text><rect fill="none" height="6" style="stroke:#C82930;stroke-width:1;" width="6" x="238" y="88.0527"/><text fill="#000000" font-family="sans-serif" font-size="14" lengthAdjust="spacing" textLength="75.4824" x="250" y="95.3496">String name</text><rect fill="none" height="6" style="stroke:#C82930;stroke-width:1;" width="6" x="238" y="106.6738"/><text fill="#000000" font-family="sans-serif" font-size="14" lengthAdjust="spacing" textLength="108.165" x="250" y="113.9707">String description</text><rect fill="none" height="6" style="stroke:#C82930;stroke-width:1;" width="6" x="238" y="125.2949"/><text fill="#000000" font-family="sans-serif" font-size="14" lengthAdjust="spacing" textLength="94.1582" x="250" y="132.5918">LocalDate start</text><rect fill="none" height="6" style="stroke:#C82930;stroke-width:1;" width="6" x="238" y="143.916"/><text fill="#000000" font-family="sans-serif" font-size="14" lengthAdjust="spacing" textLength="90.2891" x="250" y="151.2129">LocalDate end</text><rect fill="none" height="6" style="stroke:#C82930;stroke-width:1;" width="6" x="238" y="162.5371"/><text fill="#000000" font-family="sans-serif" font-size="14" lengthAdjust="spacing" textLength="95.7373" x="250" y="169.834">Boolean closed</text><rect fill="none" height="6" style="stroke:#C82930;stroke-width:1;" width="6" x="238" y="181.1582"/><text fill="#000000" font-family="sans-serif" font-size="14" lengthAdjust="spacing" textLength="170.4199" x="250" y="188.4551">TaskGroupBean taskGroup</text><rect fill="none" height="6" style="stroke:#C82930;stroke-width:1;" width="6" x="238" y="199.7793"/><text fill="#000000" font-family="sans-serif" font-size="14" lengthAdjust="spacing" textLength="132.2822" x="250" y="207.0762">TaskBean superTask</text><rect fill="none" height="6" style="stroke:#C82930;stroke-width:1;" width="6" x="238" y="218.4004"/><text fill="#000000" font-family="sans-serif" font-size="14" lengthAdjust="spacing" textLength="164.1992" x="250" y="225.6973">Set&lt;TaskBean&gt; subTasks</text><rect fill="none" height="6" style="stroke:#C82930;stroke-width:1;" width="6" x="238" y="237.0215"/><text fill="#000000" font-family="sans-serif" font-size="14" lengthAdjust="spacing" textLength="188.3301" x="250" y="244.3184">Set&lt;TaskBean&gt; predecessors</text><rect fill="none" height="6" style="stroke:#C82930;stroke-width:1;" width="6" x="238" y="255.6426"/><text fill="#000000" font-family="sans-serif" font-size="14" lengthAdjust="spacing" textLength="174.3096" x="250" y="262.9395">Set&lt;TaskBean&gt; successors</text></g><!--link TaskGroup to Task--><g class="link" data-entity-1="TaskGroup" data-entity-2="Task" data-source-line="30" data-uid="lnk4" id="link_TaskGroup_Task"><path codeLine="30" d="M170.21,138.5 C189.31,138.5 209.96,138.5 229.99,138.5" fill="none" id="TaskGroup-Task" style="stroke:#181818;stroke-width:1;"/><text fill="#000000" font-family="sans-serif" font-size="13" lengthAdjust="spacing" textLength="7.23" x="178.0775" y="153.3205">1</text><text fill="#000000" font-family="sans-serif" font-size="13" lengthAdjust="spacing" textLength="5.0591" x="216.9379" y="153.1466">*</text></g><!--SRC=[jL0x3i8m3Drp2giZKWTsn50XiR311K9YQ4I8AzjbGToTj50eeenaIjvp_3uH3mfAmE5OA_Z0w3HGCdNm26VKchmOuw8LWPsLqvgfRSpLG3ubR2WT8VZdQriJAroGfTlmn9H3dadsZ9-8Ht4S6XsDeYuwYGfjMeBccvZRMFi_iXjoDgwi8eXQrYyKqo1K4SNi3LmamG5ybTBPxbq_AdgpFI5jWzo7c0ehxNxNvvqY6qQF3aM8vSTlDz2vhvSXAEO5b2KKi-9Htnq0]--></g></svg>